/vscmnt/brussel_pixiu_data/_data_brussel/112/vsc11236/PredSimResults/SUBJ04mtu3D/worker6.mot
version=1
nRows=4
nColumns=50
inDegrees=yes
endheader
                time	         pelvis_tilt	         pelvis_list	     pelvis_rotation	           pelvis_tx	           pelvis_ty	           pelvis_tz	       hip_flexion_r	     hip_adduction_r	      hip_rotation_r	        knee_angle_r	       ankle_angle_r	         mtp_angle_r	       hip_flexion_l	     hip_adduction_l	      hip_rotation_l	        knee_angle_l	       ankle_angle_l	         mtp_angle_l	    lumbar_extension	      lumbar_bending	     lumbar_rotation	 ercspn_r/activation	 intobl_r/activation	 extobl_r/activation	    abd_r/activation	    add_r/activation	hamstrings_r/activation	bifemsh_r/activation	glut_max_r/activation	iliopsoas_r/activation	rect_fem_r/activation	  vasti_r/activation	gastroc_r/activation	 soleus_r/activation	tib_ant_r/activation	 ercspn_l/activation	 intobl_l/activation	 extobl_l/activation	    abd_l/activation	    add_l/activation	hamstrings_l/activation	bifemsh_l/activation	glut_max_l/activation	iliopsoas_l/activation	rect_fem_l/activation	  vasti_l/activation	gastroc_l/activation	 soleus_l/activation	tib_ant_l/activation	
          0.00000000	         -3.46736319	          1.03516511	          8.13848446	          0.00000000	          0.87951246	         -0.01035639	         29.51314231	         -3.75371144	        -10.32476932	         -8.05956891	          4.40934755	          0.23731339	        -12.45047249	          0.35439131	         -9.68172657	         -7.46329653	         10.11834788	         25.04482200	        -14.19429189	         -4.47109661	         -7.54157348	          0.01509577	          0.22491884	          0.02476248	          0.00999999	          0.25363370	          0.08921895	          0.10471077	          0.01348230	          0.16896950	          0.02440928	          0.01154353	          0.01884824	          0.01595929	          0.33252693	          0.01879053	          0.00999999	          0.00999999	          0.06228772	          0.01000000	          0.02399210	          0.12119349	          0.01849494	          0.01000001	          0.00999999	          0.00999999	          0.36188084	          0.18254794	          0.00999999	
          0.01364936	         -3.55798509	          1.09307329	          7.94429393	          0.01627972	          0.87736500	         -0.00998027	         29.51823933	         -3.76569773	        -10.52022869	         -9.79654045	          4.12861608	          0.22482138	        -13.19280675	          0.29268765	        -10.34039805	         -7.94218009	          9.58428417	         26.48610285	        -13.70769468	         -3.89001324	         -7.58218756	          0.01229809	          0.22626953	          0.02017327	          0.03407970	          0.20662802	          0.08212876	          0.08530483	          0.02547696	          0.13765456	          0.01988553	          0.00999999	          0.01535512	          0.01300157	          0.37062819	          0.02173188	          0.00999999	          0.01000000	          0.05074400	          0.01000001	          0.01954568	          0.09873283	          0.01506729	          0.00999999	          0.00999999	          0.01000000	          0.33796375	          0.17398914	          0.00999999	
          0.02729872	         -3.63265848	          1.08908239	          7.69479073	          0.03289779	          0.87553519	         -0.00953026	         29.44250119	         -3.73922119	        -10.72066388	        -11.36429722	          3.64599353	          0.21245724	        -13.81351579	          0.14487483	        -11.03117058	         -8.69607323	          8.94682315	         27.96389290	        -13.19249548	         -3.21384482	         -7.58901563	          0.02690198	          0.18433523	          0.01643458	          0.05880281	          0.21211664	          0.07774317	          0.06949537	          0.06251437	          0.11214318	          0.01620017	          0.02986281	          0.01250937	          0.01059200	          0.39356036	          0.04408966	          0.00999999	          0.00999999	          0.04133967	          0.00999999	          0.01592330	          0.08043477	          0.01227488	          0.01849494	          0.01000005	          0.00999999	          0.31137018	          0.15760036	          0.00999999	
          0.04094808	         -3.69117867	          1.04646236	          7.38828663	          0.04967533	          0.87420976	         -0.00896859	         29.33949105	         -3.68061147	        -11.00607862	        -12.91008827	          3.19718009	          0.19192877	        -14.23082052	         -0.08090551	        -11.75945905	         -9.85201973	          8.17372960	         29.47194530	        -12.67602294	         -2.47665112	         -7.55932540	          0.02520434	          0.15017257	          0.01338878	          0.08102544	          0.21860856	          0.07322035	          0.05661587	          0.05092866	          0.09135980	          0.01319781	          0.07948214	          0.01019102	          0.00999999	          0.42311559	          0.05223681	          0.00999999	          0.00999999	          0.03367823	          0.00999999	          0.01297227	          0.06552788	          0.00999999	          0.01506729	          0.01000000	          0.00999999	          0.26447048	          0.13919452	          0.00999999	
